<svg xmlns="http://www.w3.org/2000/svg" width="143" height="68"><g fill="none" fill-rule="evenodd"><path d="M137.488 42.343c-.268.187-.477.28-.716.373-.478.187-1.014.373-1.552.56-.536.218-1.074.404-1.55.56-.567.217-1.134.404-1.612.59a5.975 5.975 0 00-1.103.685c-.299.28-.538.59-.777 1.027-.238.403-.358.932-.358 1.554 0 1.244.299 2.177.865 2.8.568.59 1.642.932 3.193.932 1.581 0 2.655-.341 3.252-.964.567-.653.865-1.555.865-2.737l-.03-6.127c-.06.343-.238.56-.477.747zm-59.128 0c-.269.187-.477.28-.716.373-.477.187-1.014.373-1.551.56-.538.218-1.074.404-1.55.56-.569.217-1.135.404-1.612.59a5.95 5.95 0 00-1.104.685c-.299.28-.537.59-.776 1.027-.239.435-.358.932-.358 1.554 0 1.244.299 2.177.865 2.8.567.59 1.641.932 3.193.932 1.58 0 2.655-.341 3.25-.964.568-.653.866-1.555.866-2.737l-.03-6.127c-.059.343-.238.56-.477.747z"/><path fill="#FFF" fill-rule="nonzero" d="M123.974 28.472h-2.297c-1.91 0-3.431.249-4.475.746-1.104.497-1.91 1.09-2.446 1.742-.567.684-.896 1.337-1.015 2.022-.149.684-.208 1.213-.208 1.586v20.277c0 .187.149.343.327.343h3.433a.339.339 0 00.327-.343V35.437c0-.311.03-.622.12-.995.09-.342.269-.653.537-.995.268-.342.716-.59 1.223-.84.536-.249 1.223-.373 2.088-.373h1.61c.12 0 .27-.093.299-.249l.777-3.11a.319.319 0 00-.299-.404zm16.079 1.71c-1.313-1.15-3.37-1.71-6.145-1.71-1.432 0-2.655.187-3.759.405a6.81 6.81 0 00-2.536 1.275 4.9 4.9 0 00-1.462 1.928 6.015 6.015 0 00-.447 2.332v.87c0 .188.15.343.328.343h3.43c.18 0 .33-.125.33-.31.059-.84.357-1.556.834-2.147.597-.684 1.64-1.026 3.222-1.026.805 0 1.462.093 1.969.28.507.186.925.404 1.253.715.299.311.537.59.657.964.15.373.209.684.209 1.026v.934c0 .403-.06.746-.21 1.057a3.01 3.01 0 01-.477.777c-.209.187-.387.373-.596.498-.18.124-.36.218-.478.28-.119.062-.448.155-.955.373-.536.187-1.103.405-1.79.653-.685.28-1.401.498-2.117.778-.746.28-1.373.467-1.94.684-1.134.405-1.999 1.151-2.625 2.177a6.728 6.728 0 00-.925 3.42v2.333c0 .591.12 1.245.328 1.96.18.716.597 1.369 1.194 1.96.597.59 1.432 1.119 2.475 1.492 1.045.373 2.387.591 4.088.591 1.67 0 3.042-.186 4.087-.59 1.044-.406 1.88-.903 2.475-1.494.597-.59.986-1.243 1.194-1.959.21-.715.328-1.369.328-1.96V34.474c0-1.71-.656-3.14-1.939-4.292zM137.13 50.46c-.597.623-1.671.964-3.252.964-1.55 0-2.625-.341-3.193-.932-.566-.623-.865-1.556-.865-2.8 0-.622.12-1.15.358-1.554.24-.437.478-.747.777-1.027.358-.28.716-.498 1.103-.685.478-.186 1.045-.373 1.611-.59a23.657 23.657 0 001.551-.56c.538-.187 1.074-.373 1.552-.56.239-.094.448-.186.716-.373.239-.186.417-.404.477-.747l.03 6.127c0 1.182-.298 2.084-.865 2.737zm-27.447-22.02h-3.4a.339.339 0 00-.328.343v18.971c0 .87-.119 1.151-.209 1.525-.09.373-.268.684-.566.994-.269.311-.687.56-1.224.778-.537.218-1.282.343-2.207.343-.895 0-1.611-.125-2.118-.343-.538-.218-.925-.467-1.193-.808a2.704 2.704 0 01-.507-1.026 5.51 5.51 0 01-.18-1.431V28.783a.34.34 0 00-.328-.343h-3.4a.34.34 0 00-.33.343v20.308c0 .405.09.902.21 1.587.12.684.477 1.369 1.014 2.021.567.685 1.343 1.275 2.446 1.742 1.104.467 2.595.715 4.505.715 1.909 0 3.401-.248 4.504-.715 1.105-.497 1.91-1.089 2.447-1.742.566-.652.895-1.337 1.014-1.99.15-.684.209-1.213.209-1.618v-.901l-.03-19.407a.339.339 0 00-.328-.343zm-28.787 1.742c-1.312-1.15-3.371-1.71-6.145-1.71-1.432 0-2.655.187-3.67.405a6.818 6.818 0 00-2.536 1.275 4.92 4.92 0 00-1.462 1.928 5.997 5.997 0 00-.447 2.332v.87c0 .188.149.343.328.343h3.341c.18 0 .329-.125.329-.31.06-.84.358-1.556.835-2.147.597-.684 1.64-1.026 3.221-1.026.806 0 1.462.093 1.97.28.507.186.955.404 1.253.715.298.311.536.59.656.964.15.373.21.684.21 1.026v.934c0 .403-.06.746-.21 1.057-.12.28-.269.529-.478.777-.208.187-.387.373-.595.498-.18.124-.36.218-.478.28-.12.062-.448.155-.955.373-.537.187-1.103.405-1.79.653-.686.28-1.402.498-2.118.778-.746.28-1.372.467-1.939.684-1.134.405-2 1.151-2.625 2.177a6.728 6.728 0 00-.925 3.42v2.333c0 .591.119 1.245.328 1.96.18.716.597 1.369 1.194 1.96.597.59 1.431 1.119 2.475 1.492 1.045.373 2.387.591 4.088.591 1.67 0 3.042-.186 4.087-.59 1.043-.406 1.88-.903 2.475-1.494.597-.59.985-1.243 1.194-1.959.209-.715.328-1.369.328-1.96V34.474c0-1.71-.657-3.14-1.94-4.292zM78.002 50.46c-.596.623-1.67.964-3.251.964-1.552 0-2.626-.341-3.193-.932-.566-.623-.865-1.556-.865-2.8 0-.622.12-1.12.358-1.554.24-.437.477-.747.776-1.027a5.95 5.95 0 011.104-.685c.477-.186 1.043-.373 1.611-.59a23.851 23.851 0 001.55-.56c.538-.187 1.075-.373 1.552-.56.239-.094.447-.186.716-.373.239-.186.418-.404.478-.747l.029 6.127c0 1.182-.298 2.084-.865 2.737zm8.264-27.73v32.115c0 .187.15.343.328.343h3.4c.18 0 .329-.156.329-.343V22.83a4.397 4.397 0 01-1.933.422c-.78 0-1.489-.174-2.124-.522z"/><path d="M66.636 22.159v-8.917c0-.071.023-.133.07-.182a.22.22 0 01.169-.073h2.968c.755 0 1.4.242 1.934.727.535.485.803 1.079.803 1.778 0 .466-.15.884-.453 1.253-.302.368-.643.66-1.024.875 1.137.503 1.705 1.234 1.705 2.195 0 .746-.269 1.366-.807 1.858-.54.494-1.194.741-1.968.741h-3.156a.229.229 0 01-.172-.073.259.259 0 01-.07-.182zm1.986-5.348h.993a.827.827 0 00.63-.283.98.98 0 00.26-.687.891.891 0 00-.26-.653.858.858 0 00-.63-.263h-.993v1.887zm0 3.677h1.158c.246 0 .46-.096.643-.29a.97.97 0 00.274-.693c0-.26-.108-.482-.325-.667a1.084 1.084 0 00-.719-.277h-1.031v1.927zm6.486.654c-.887-.939-1.33-2.082-1.33-3.429 0-1.346.443-2.493 1.33-3.44.885-.949 1.967-1.423 3.24-1.423 1.271.002 2.355.475 3.245 1.422.89.948 1.336 2.095 1.336 3.441 0 1.347-.445 2.49-1.336 3.428-.891.938-1.973 1.407-3.247 1.407-1.273 0-2.353-.467-3.24-1.407zm.705-3.43c0 .737.248 1.367.745 1.893.496.525 1.093.788 1.788.788.696 0 1.294-.262 1.796-.788.5-.525.75-1.156.75-1.893 0-.745-.25-1.383-.75-1.912-.5-.53-1.1-.795-1.796-.795-.695 0-1.291.265-1.788.795-.497.53-.745 1.168-.745 1.912zm15.824-3.44c-.891-.947-1.974-1.42-3.247-1.42-1.272 0-2.353.473-3.24 1.42-.886.948-1.329 2.095-1.329 3.441 0 1.347.443 2.49 1.33 3.428a4.59 4.59 0 001.115.878c.635.352 1.343.53 2.124.53.703 0 1.347-.143 1.933-.43.475-.23.914-.557 1.314-.978.89-.938 1.336-2.081 1.336-3.428 0-1.346-.445-2.493-1.336-3.44zm-1.314 5.177a2.54 2.54 0 01-.138.157c-.5.525-1.099.787-1.795.787-.695 0-1.292-.262-1.788-.787a2.672 2.672 0 01-.746-1.893c0-.745.25-1.383.746-1.912.496-.53 1.093-.795 1.788-.795.696 0 1.294.265 1.795.795.501.53.751 1.167.751 1.912 0 .665-.204 1.244-.613 1.736zm5.285 2.71v-7.193h-1.82a.226.226 0 01-.172-.074.25.25 0 01-.07-.181v-1.469c0-.071.024-.133.07-.182a.23.23 0 01.172-.073h5.652c.067 0 .124.025.172.073.047.05.07.11.07.182v1.468a.253.253 0 01-.07.181.229.229 0 01-.172.074h-1.82v7.193a.247.247 0 01-.077.174.224.224 0 01-.166.081H95.85c-.06 0-.114-.027-.165-.08a.247.247 0 01-.077-.175zm5.989-1.017c-.896-.94-1.344-2.083-1.344-3.43 0-1.346.448-2.493 1.344-3.44.895-.948 1.979-1.422 3.252-1.422 1.188 0 2.215.418 3.08 1.253.127.126.131.252.012.377l-.993 1.092c-.11.108-.217.108-.319 0a2.411 2.411 0 00-1.718-.688c-.712 0-1.307.272-1.782.815-.475.543-.712 1.197-.712 1.959 0 .754.24 1.399.72 1.933a2.303 2.303 0 001.788.801 2.45 2.45 0 001.705-.647c.12-.108.23-.103.331.013l.994 1.119c.11.116.105.237-.013.363-.848.872-1.88 1.306-3.092 1.306-1.274.003-2.358-.466-3.253-1.406zm6.943 1.272c-.093 0-.164-.035-.21-.108-.046-.071-.048-.153-.006-.242L112.308 13c.043-.099.115-.149.217-.149h.127c.102 0 .174.05.216.149l3.985 9.064c.043.09.04.17-.007.242a.231.231 0 01-.21.108h-1.412c-.196 0-.344-.111-.446-.337l-.458-1.064h-3.462l-.458 1.078c-.086.216-.238.323-.458.323h-1.402zm3.08-3.232h1.935l-.967-2.223h-.013l-.954 2.223zm5.716 2.937l1.437-9.052c.017-.143.093-.215.229-.215h.204c.102 0 .174.045.217.135l2.953 5.819h.026l2.954-5.82a.22.22 0 01.216-.134h.203c.136 0 .212.073.23.215l1.438 9.052a.283.283 0 01-.058.216.233.233 0 01-.184.08h-1.502a.226.226 0 01-.16-.067.254.254 0 01-.082-.149l-.573-4.161h-.026l-2.138 4.363c-.043.099-.115.149-.217.149h-.229c-.102 0-.174-.05-.216-.149l-2.152-4.365h-.025l-.56 4.162c-.017.144-.098.216-.243.216h-1.502a.233.233 0 01-.184-.08.28.28 0 01-.057-.215zm11.736.04v-8.917c0-.071.023-.133.07-.182a.223.223 0 01.171-.073h3.068c.781 0 1.45.292 2.01.875.56.584.841 1.284.841 2.101 0 .835-.278 1.55-.833 2.142-.556.593-1.225.89-2.006.89h-1.336v3.165a.254.254 0 01-.076.175.228.228 0 01-.166.08h-1.503a.23.23 0 01-.172-.073.268.268 0 01-.068-.183zm1.986-5.132h1.21a.94.94 0 00.712-.31c.195-.206.293-.458.293-.754a.958.958 0 00-.293-.707.972.972 0 00-.712-.29h-1.21v2.061zm5.066 4.485c-.068-.071-.106-.128-.114-.169-.009-.04.008-.11.05-.209l.599-1.118c.042-.081.114-.126.216-.134.102-.009.174.009.217.053l.088.053c.06.046.13.094.21.149.081.053.183.113.305.174.124.063.246.121.37.176.123.054.259.099.407.134.148.036.29.054.426.054a.886.886 0 00.63-.23.748.748 0 00.248-.579c0-.539-.438-.993-1.312-1.36-1.646-.692-2.47-1.684-2.47-2.977 0-.728.26-1.356.777-1.886.517-.53 1.239-.794 2.164-.794.95 0 1.859.337 2.725 1.01.067.045.105.117.114.216.008.099-.004.171-.038.215l-.65 1.038a.473.473 0 01-.21.182c-.088.04-.163.038-.222-.007a.93.93 0 01-.152-.108 2.756 2.756 0 00-.319-.21l-.4-.222a2.384 2.384 0 00-.477-.194 1.712 1.712 0 00-.472-.074.835.835 0 00-.572.202.624.624 0 00-.229.484c0 .252.106.479.319.68.212.203.569.412 1.07.628 1.714.718 2.57 1.742 2.57 3.07 0 .736-.278 1.386-.834 1.946-.555.562-1.279.842-2.17.842-.721 0-1.322-.113-1.8-.337-.48-.222-.835-.456-1.064-.698zM28.968 68C9.811 68 10.906 60.09 0 52.233l.832-4.28 6.608.076-.223-3.927 4.888-.684C.7 30.964 6.129 6.26 26.555 4.268L26.258 0h6.507l-.297 4.328c19.809 2.391 24.202 26.77 13.577 39.103l5.146.763-.074 4.332 6.786.078.855 4.233C48.329 60.435 48.125 68 28.968 68zM7.667 51.306c-2.808 0-2.944 3.005.047 3.005 2.732 0 2.75-3.005-.047-3.005zm43.625 3.255c2.732 0 2.749-3.005-.047-3.005-2.808 0-2.944 3.005.047 3.005zm-13.697-3.077c4.058 0 4.084-6.305-.071-6.305-4.17 0-4.371 6.305.071 6.305zm-8.14 13.364c2.731 0 2.748-4.245-.048-4.245-2.809 0-2.944 4.245.048 4.245zm-13.07-3.212c2.732 0 2.75-3.391-.047-3.391-2.807 0-2.943 3.39.048 3.39zM29.058 13.52c-18.119 0-18.058 27.426-.465 27.588l.918-.129.56.084c18.056-1.228 16.804-27.543-1.013-27.543zm13.13 44.899c-2.808 0-2.944 3.391.047 3.391 2.731 0 2.75-3.391-.048-3.391zm-19.444-39.56c1.62-1.228 3.735-1.99 6.357-1.99 1.146 0 2.2.145 3.162.409l-5.643 5.331-3.876-3.75zm-3.701 10.91c-.63-3.03-.068-6.354 1.72-8.87l3.643 3.802-5.363 5.069z" fill="#14D1E9" fill-rule="nonzero"/></g></svg>