<svg width="30" height="7" viewBox="0 0 30 7" fill="none" xmlns="http://www.w3.org/2000/svg">
<path d="M14.7321 5.19184C15.6111 5.19184 16.3236 4.47732 16.3236 3.59592C16.3236 2.71452 15.6111 2 14.7321 2C13.8532 2 13.1406 2.71452 13.1406 3.59592C13.1406 4.47732 13.8532 5.19184 14.7321 5.19184Z" stroke="#070C0E" stroke-width="3.19078" stroke-linecap="round" stroke-linejoin="round"/>
<path d="M25.8728 5.19184C26.7517 5.19184 27.4643 4.47732 27.4643 3.59592C27.4643 2.71452 26.7517 2 25.8728 2C24.9938 2 24.2812 2.71452 24.2812 3.59592C24.2812 4.47732 24.9938 5.19184 25.8728 5.19184Z" stroke="#070C0E" stroke-width="3.19078" stroke-linecap="round" stroke-linejoin="round"/>
<path d="M3.59151 5.19184C4.47048 5.19184 5.18302 4.47732 5.18302 3.59592C5.18302 2.71452 4.47048 2 3.59151 2C2.71254 2 2 2.71452 2 3.59592C2 4.47732 2.71254 5.19184 3.59151 5.19184Z" stroke="#070C0E" stroke-width="3.19078" stroke-linecap="round" stroke-linejoin="round"/>
</svg>
