<svg width="32" height="32" viewBox="0 0 32 32" fill="none" xmlns="http://www.w3.org/2000/svg">
<path d="M27.7867 6.14684C27.1057 5.46551 26.2972 4.92504 25.4072 4.55629C24.5173 4.18754 23.5634 3.99774 22.6001 3.99774C21.6368 3.99774 20.6829 4.18754 19.7929 4.55629C18.903 4.92504 18.0944 5.46551 17.4134 6.14684L16.0001 7.56018L14.5867 6.14684C13.2112 4.77125 11.3455 3.99845 9.40008 3.99845C7.4547 3.99845 5.589 4.77125 4.21341 6.14684C2.83782 7.52243 2.06502 9.38813 2.06502 11.3335C2.06502 13.2789 2.83782 15.1446 4.21341 16.5202L5.62674 17.9335L16.0001 28.3068L26.3734 17.9335L27.7867 16.5202C28.4681 15.8392 29.0085 15.0306 29.3773 14.1406C29.746 13.2507 29.9358 12.2968 29.9358 11.3335C29.9358 10.3702 29.746 9.41631 29.3773 8.52637C29.0085 7.63642 28.4681 6.82785 27.7867 6.14684V6.14684Z" stroke="black" stroke-width="2.66667" stroke-linecap="round" stroke-linejoin="round"/>
</svg>
