<svg width="32" height="32" viewBox="0 0 32 32" fill="none" xmlns="http://www.w3.org/2000/svg">
<path fill-rule="evenodd" clip-rule="evenodd" d="M15.1814 1.61421C15.6629 1.23972 16.3371 1.23972 16.8186 1.61421L28.8186 10.9475C29.1434 11.2001 29.3333 11.5886 29.3333 12V26.6667C29.3333 27.7275 28.9119 28.745 28.1617 29.4951C27.4116 30.2453 26.3942 30.6667 25.3333 30.6667H6.66666C5.60579 30.6667 4.58837 30.2453 3.83823 29.4951C3.08808 28.745 2.66666 27.7275 2.66666 26.6667V12C2.66666 11.5886 2.85662 11.2001 3.1814 10.9475L15.1814 1.61421ZM5.33332 12.6521V26.6667C5.33332 27.0203 5.4738 27.3594 5.72385 27.6095C5.9739 27.8595 6.31303 28 6.66666 28H25.3333C25.6869 28 26.0261 27.8595 26.2761 27.6095C26.5262 27.3594 26.6667 27.0203 26.6667 26.6667V12.6521L16 4.35583L5.33332 12.6521Z" fill="#D7385E"/>
<path fill-rule="evenodd" clip-rule="evenodd" d="M10.6667 16C10.6667 15.2636 11.2636 14.6667 12 14.6667H20C20.7364 14.6667 21.3333 15.2636 21.3333 16V29.3333C21.3333 30.0697 20.7364 30.6667 20 30.6667C19.2636 30.6667 18.6667 30.0697 18.6667 29.3333V17.3333H13.3333V29.3333C13.3333 30.0697 12.7364 30.6667 12 30.6667C11.2636 30.6667 10.6667 30.0697 10.6667 29.3333V16Z" fill="#D7385E"/>
</svg>
