<svg width="39" height="39" viewBox="0 0 39 39" fill="none" xmlns="http://www.w3.org/2000/svg">
<path d="M33.4218 18.3531C33.4273 20.4595 32.9365 22.5374 31.9895 24.4175C30.8665 26.6706 29.1402 28.5656 27.004 29.8904C24.8677 31.2152 22.4058 31.9174 19.894 31.9184C17.7934 31.9238 15.7212 31.4317 13.8462 30.482L4.7746 33.5143L7.79847 24.4175C6.85141 22.5374 6.36063 20.4595 6.36611 18.3531C6.36708 15.8343 7.06735 13.3656 8.38847 11.2234C9.7096 9.08118 11.5994 7.35012 13.8462 6.22409C15.7212 5.27441 17.7934 4.78227 19.894 4.78777H20.6897C24.007 4.97128 27.1402 6.37532 29.4894 8.73105C31.8386 11.0868 33.2388 14.2287 33.4218 17.5551V18.3531Z" stroke="black" stroke-width="3.19078" stroke-linecap="round" stroke-linejoin="round"/>
</svg>
